<?xml version="1.0" encoding="utf-8"?>
<!-- Generator: Adobe Illustrator 27.5.0, SVG Export Plug-In . SVG Version: 6.00 Build 0)  -->
<svg version="1.1" xmlns="http://www.w3.org/2000/svg" xmlns:xlink="http://www.w3.org/1999/xlink" x="0px" y="0px"
	 viewBox="0 0 1200 850" style="enable-background:new 0 0 1200 850;" xml:space="preserve">
<g id="BACKGROUND">
	<rect width="1200" height="850"/>
</g>
<g id="OBJECTS">
	<g>
		<g>
			<g>
				<g>
					<path style="fill:#61E6F5;" d="M1200,0h-26.258c-10.631,3.031-21.095,6.787-31.353,11.279
						c-27.066,11.854-51.918,28.899-80.18,37.993c-57.725,18.574-116.494-10.018-171.175-27.486
						C857.213,10.982,822.82,3.553,787.861,0h-90.405c-91.527,10.216-173.579,50.938-262.52,75.51
						c-52.223,14.428-106.63,21.333-160.053,8.644C215.86,70.135,173.512,30.46,123.092,0h-17.183
						c6.051,3.096,12.022,6.576,17.899,10.474c49.796,33.026,90.385,75.381,150.38,90.302c53.62,13.336,108.42,6.053,160.511-9.871
						C534.752,60.319,624.392,7.983,731.57,5.696c54.67-1.167,108.131,8.063,159.57,26.396
						c54.136,19.295,113.255,51.698,171.236,31.03c28.08-10.01,52.039-28.685,78.621-41.789
						c18.847-9.291,38.626-15.801,59.002-19.437V0z"/>
				</g>
				<g>
					<path style="fill:#0367A6;" d="M607.258,0c-57.711,13.901-114.357,32.778-173.025,45.491
						c-52.809,11.444-107.051,17.568-160.375,5.368C232.144,41.315,196.698,20.459,160.484,0h-20.209
						c43.761,26.18,83.996,56.428,135.292,68.059c53.233,12.07,107.275,5.515,159.593-7.457C507.34,42.706,575.788,14.852,647.672,0
						H607.258z"/>
					<path style="fill:#0367A6;" d="M1122.03,0c-20.642,8.283-41.031,17.371-62.685,22.58
						C1003.488,36.018,947.053,15.24,892.987,1.9c-2.631-0.649-5.263-1.276-7.896-1.9h-43.027
						c16.368,3.241,32.644,7.202,48.849,11.799c55.106,15.634,113.631,40.647,171.075,24.046
						c28.457-8.223,54.144-23.668,81.667-34.319c1.356-0.525,2.718-1.024,4.079-1.527H1122.03z"/>
				</g>
				<g>
					<path style="fill:#50D4F2;" d="M513.869,0c-26.365,5.58-52.802,10.935-79.477,15.225
						c-52.902,8.507-106.459,13.961-159.497,3.105C254.498,14.154,235.14,7.613,216.223,0h-31.924
						c28.751,14.463,57.857,27.839,90.131,34.84c53.179,11.535,107.065,5.746,159.932-4.253
						C478.768,22.189,522.279,10.541,565.927,0H513.869z"/>
					<path style="fill:#50D4F2;" d="M929.513,0c42.766,9.63,86.379,18.198,129.503,9.071c12.121-2.565,23.921-5.698,35.551-9.071
						H929.513z"/>
				</g>
				<g>
					<path style="fill:#346272;" d="M264.372,0c3.576,0.829,7.174,1.6,10.8,2.299c52.91,10.2,106.193,5.075,159.109-1.986
						c0.758-0.101,1.514-0.21,2.271-0.313H264.372z"/>
				</g>
			</g>
			<g>
				<g>
					<path style="fill:#61E6F5;" d="M1200,88.669c-30.78,6.573-58.788,23.721-79.156,48.025
						c-20.854,24.885-36.501,58.197-64.829,75.788c-58.858,36.548-125.501-39.671-169.371-71.256
						c-47.373-34.107-107.577-48.16-165.31-41.534c-114.057,13.091-195.029,103.657-291.212,157.08
						c-50.571,28.089-109.332,42.141-165.733,22.598c-32.341-11.207-59.158-34.626-79.836-61.553
						c-19.383-25.242-30.915-55.003-49.264-80.8C101.586,89.633,52.198,72.895,0,77.481v16.455
						c49.699-3.098,95.555,11.884,130.201,61.673c17.896,25.717,29.309,55.09,48.758,79.898c20.628,26.312,47.583,48.59,79.58,59.02
						c57.402,18.712,115.891,2.052,167.548-24.709c48.404-25.077,94.398-55.075,140.26-84.513
						c48.254-30.974,95.096-61.618,152.548-71.823c57.803-10.267,118.877,3.202,166.756,37.303
						c43.839,31.224,108.989,107.254,168.277,74.373c29.212-16.201,45.557-49.17,66.281-73.977
						c20.581-24.637,48.678-42.505,79.791-49.659V88.669z"/>
				</g>
				<g>
					<path style="fill:#0367A6;" d="M1200,67.491c-29.522,5.857-56.739,21.239-76.991,43.944
						c-21.574,24.188-37.068,56.675-64.436,75.153c-58.265,39.339-126.097-33.289-171.019-64.703
						c-47.257-33.047-106.594-47.68-163.862-45.317c-58.396,2.409-109.331,23.917-157.767,55.7
						c-45.831,30.074-85.624,68.671-133.277,96.064c-49.6,28.512-108.657,38.903-163.633,18.984
						c-32.419-11.746-59.077-35.707-80.097-62.642c-19.415-24.879-31.634-54.235-50.72-79.206C102.719,59.045,52.28,44.812,0,51.065
						v10.024c52.887-6.207,103.635,9.07,138.343,57.069c18.666,25.814,30.188,55.886,49.389,81.487
						c20.59,27.454,47.132,51.908,79.678,63.801c55.412,20.249,114.693,8.847,164.302-20.364
						C529.318,185.61,601.65,92.808,722.567,85.943c57.665-3.274,117.518,11.813,164.514,45.969
						c43.963,31.952,112.358,108.457,170.702,68.258c27.521-18.963,42.477-52.499,63.572-77.532
						c20.214-23.988,48.162-40.426,78.646-46.451V67.491z"/>
				</g>
				<g>
					<path style="fill:#50D4F2;" d="M1200,53.192c-27.286,5.634-52.696,18.809-73.017,38.377
						c-22.661,21.821-40.066,51.369-67.569,67.702c-58.387,34.672-123.751-28.031-171.018-57.526
						c-48.164-30.055-106.436-43.11-162.874-40.952c-57.24,2.188-108.1,21.548-157.065,50.477
						c-46.074,27.222-87.295,62.207-135.076,86.592c-50.344,25.693-108.323,35.266-162.95,16.705
						c-66.116-22.465-92.377-81.72-135.226-130.502C98.621,42.418,50.075,29.893,0,35.25v8.178
						c51.278-5.818,100.871,7.574,136.979,51.722c41.676,50.957,65.897,112.742,133.082,136.366
						c54.844,19.285,113.243,9.211,163.25-17.908c47.718-25.877,88.165-62.793,134.081-91.483
						c48.669-30.411,99.539-50.882,157.341-53.211c56.812-2.288,115.613,11.52,163.293,43.088
						c46.127,30.539,112.609,98.141,170.987,61.15c27.436-17.385,43.866-48.477,65.961-71.498
						c20.306-21.158,46.621-35.43,75.026-41.202V53.192z"/>
				</g>
				<g>
					<path style="fill:#346272;" d="M1200,38.972c-25.122,5.266-48.769,16.407-68.925,32.864
						c-23.793,19.426-43.148,45.907-70.816,60.22c-58.388,30.205-121.761-23.286-171.224-50.402
						c-49.182-26.961-106.502-38.551-162.33-36.599c-114.601,4.007-194.329,77.611-294.107,122.353
						c-50.995,22.867-108.25,31.671-162.527,14.406c-64.027-20.367-94.198-74.822-139.18-119.216
						C93.786,25.979,47.544,14.917,0,19.265v8.045c48.802-4.853,96.194,6.921,133.059,46.075
						c43.904,46.63,72.08,103.488,137.143,124.885c54.447,17.905,112.075,8.741,162.752-15.551
						c47.899-22.96,89.906-56.07,136.195-81.882c49.288-27.485,100.193-45.795,156.953-47.858
						c56.139-2.041,113.951,10.295,162.627,38.855c48.369,28.38,112.72,86.484,171.124,54.031
						c27.582-15.326,45.948-43.368,69.169-64.014c20.263-18.016,44.783-30.163,70.978-35.636V38.972z"/>
				</g>
				<g>
					<path style="fill:#4E92AA;" d="M1200,24.45c-23.255,4.739-45.404,14.024-65.286,27.602c-24.892,17-46.168,40.377-74.022,52.761
						c-58.219,25.884-119.963-18.896-171.355-43.236c-50.11-23.733-106.228-33.86-161.483-32.186
						c-111.399,3.375-195.441,68.847-295.48,107.752c-51.537,20.043-107.97,28.103-161.922,12.149
						c-62.147-18.377-96.329-68.145-143.422-107.951C89.499,9.618,45.284-0.016,0,3.551v7.965
						c46.396-3.929,91.602,6.435,128.927,40.627c46.028,42.165,78.162,94.308,141.238,113.688
						c54.116,16.627,110.978,8.185,162.254-13.296C532.407,110.646,614.24,41.152,727.276,37.358
						c55.526-1.864,112.32,9.046,161.952,34.423c50.452,25.797,112.973,74.939,171.301,46.879
						c27.756-13.353,48.062-38.312,72.4-56.548c20.032-15.009,42.906-25.222,67.071-30.245V24.45z"/>
				</g>
				<g>
					<path style="fill:#68C3E3;" d="M1200,9.537c-21.687,4.103-42.59,11.701-62.118,22.65
						c-25.947,14.548-49.086,34.774-77.169,45.318c-58.094,21.811-118.155-15.083-171.377-36.044
						c-51.027-20.097-105.59-29.302-160.385-27.796c-108.409,2.979-196.256,59.999-296.36,93.107
						c-51.961,17.185-107.512,24.497-161.144,9.891c-60.492-16.474-98.694-61.577-147.795-96.6
						C111.798,11.607,99.488,4.997,86.842,0H60.549c22.723,5.264,44.552,15.128,64.763,30.874
						c48.099,37.473,84.268,84.945,145.57,102.372c53.794,15.293,109.797,7.602,161.557-11.038
						c100.099-36.05,186.061-97.37,295.96-100.549c54.948-1.589,110.491,7.946,160.967,30.024
						c52.219,22.84,113.31,63.518,171.381,39.701c27.96-11.468,50.162-33.301,75.579-49.097
						c19.718-12.254,41.224-20.699,63.673-25.136V9.537z"/>
				</g>
			</g>
			<g>
				<g>
					<path style="fill:#61E6F5;" d="M1200,234.336c-38.978,14.166-70.853,42.025-98.31,72.53
						c-24.589,27.318-49.544,52.017-89.049,48.914c-34.374-2.7-64.707-30.536-89.963-51.862
						c-25.085-21.181-49.644-41.581-77.623-58.875c-55.274-34.167-136.241-47.628-186.914,3.18
						c-45.231,45.352-75.749,111.934-138.289,137.12c-29.957,12.064-61.577,8.264-92.485,2.998
						c-33.592-5.723-65.596-5.221-99.046,1.728c-62.591,13.003-120.158,47.167-185.66,44.147
						c-60.245-2.778-81.85-44.723-104.766-94.238C28.295,319.234,15.599,301.36,0,287.696v23.632
						c12.19,13.054,22.204,28.938,30.033,46.733c21.748,49.433,43.716,89.759,103.306,90.603
						c66.088,0.936,123.404-34.517,186.932-46.701c34.342-6.587,66.936-5.933,100.971,1.635
						c31.143,6.925,63.375,12.467,94.126,0.454c64.306-25.12,92.515-95.462,135.801-143.694
						c48.963-54.556,132.031-41.813,188.096-7.582c28.275,17.264,53.061,37.634,78.199,59.129
						c25.556,21.853,55.57,50.821,90.243,55.081c40.311,4.953,66.218-18.902,91.629-46.676
						c28.366-31.004,60.78-59.804,100.666-74.532V234.336z"/>
				</g>
				<g>
					<path style="fill:#0367A6;" d="M1200,211.32c-35.73,12.437-66.098,37.021-91.03,65.131
						c-24.435,27.549-49.169,58.41-89.736,56.819c-31.799-1.247-60.763-24.142-84.541-43.489c-25.26-20.553-49.29-41.11-76.705-58.8
						c-56.143-36.226-135.001-50.766-189.841-3.469c-45.921,39.605-81.626,97.096-139.013,121.489
						c-28.656,12.181-58.926,12.199-89.464,10.16c-30.349-2.026-59.336,0.537-89.003,7.441
						c-62.905,14.64-123.579,48.808-189.956,40.54c-59.536-7.415-80.846-50.974-105.173-99.736
						C42.046,280.362,23.23,258.988,0,245.411v20.826c19.03,13.674,34.512,33.069,45.928,56.58
						c24.123,49.681,45.475,93.225,106.385,97.916c64.857,4.996,122.646-27.914,184.286-41.785
						c32.569-7.329,63.978-8.97,97.057-5.083c30.6,3.595,61.601,5.707,90.774-6.438c60.865-25.339,93.476-88.479,140.453-130.943
						c52.135-47.127,130.997-33.214,185.53,0.896c27.7,17.327,52.049,37.762,77.09,58.644c25.016,20.86,55.631,47.615,89.729,48.767
						c38.682,1.307,62.747-24.156,86.591-51.058c26.63-30.046,58.014-57.041,96.178-70.649V211.32z"/>
				</g>
				<g>
					<path style="fill:#50D4F2;" d="M1200,187.739c-34.376,11.287-63.963,34.283-87.541,61.502
						c-23.405,27.02-45.987,58.55-84.783,61.26c-31.325,2.188-60.968-19.114-84.454-37.615
						c-25.279-19.913-49.016-40.632-75.919-58.425c-54.493-36.039-129.028-50.597-186.152-11.454
						c-49.145,33.677-87.548,84.958-142.204,110.285c-52.565,24.359-114.759,16.368-170.2,31.98
						c-60.714,17.097-121.689,48.287-186.413,36.245c-60.827-11.316-82.118-58.141-109.007-107.625
						C53.496,237.398,28.286,217.114,0,207.805v18.493c26.829,12.653,48.734,34.915,64.175,64.573
						c25.561,49.096,46.825,94.254,106.994,103.6c65.579,10.186,126.443-22.58,188.272-38.399
						c28.861-7.384,57.203-11.015,86.948-10.843c30.06,0.174,59.658-1.437,87.544-13.793
						c56.016-24.822,93.095-79.217,140.676-115.936c56.08-43.279,132.778-28.704,188.124,7.44
						c27.157,17.735,51.03,38.37,76.292,58.605c23.698,18.983,52.828,40.871,84.468,40.587c39.66-0.356,63.453-31.846,87.263-59.018
						c24.241-27.663,54.207-51.456,89.245-63.331V187.739z"/>
				</g>
				<g>
					<path style="fill:#346272;" d="M1200,163.669c-34.047,10.347-63.349,32.593-86.13,59.769
						c-21.119,25.194-41.44,55.89-75.757,63.492c-33.275,7.371-65.586-14.253-90.677-33.774
						c-25.326-19.704-49.225-40.58-76.002-58.418c-51.726-34.459-120.877-45.941-177.542-16.793
						c-52.651,27.083-93.373,73.148-145.973,99.991c-50.171,25.604-109.602,29.037-162.697,46.992
						c-57.291,19.374-116.359,46.011-178.104,32.438c-65.548-14.409-86.51-67.843-117.951-119.745
						C65.15,197.975,34.279,178.995,0,173.003v17.412c31.751,7.806,60.162,27.948,82.296,67.094
						c28.209,49.89,49.579,98.35,111.038,111.55c63.87,13.717,124.873-15.805,184.508-34.198
						c54.068-16.675,114.681-14.336,165.889-39.15c53.501-25.925,92.622-74.667,143.532-104.866
						c58.412-34.649,129.986-20.935,184.08,15.283c26.672,17.858,50.308,38.659,75.626,58.264
						c23.534,18.224,53.351,38.544,84.516,34.751c37.823-4.603,59.548-36.686,82.469-63.414
						c22.994-26.813,52.256-49.067,86.047-59.779V163.669z"/>
				</g>
				<g>
					<path style="fill:#4E92AA;" d="M1200,139.114c-33.081,9.128-61.934,29.906-83.771,56.353
						c-20.545,24.881-39.412,56.569-71.723,67.447c-32.723,11.016-65.631-8.493-91.172-27.694
						c-25.475-19.153-49.209-40.201-75.622-58.187c-50.085-34.105-115.878-45.648-173.147-23.979
						c-54.879,20.765-97.881,61-148.405,89.371c-47.993,26.95-102.716,41.622-153.574,62.168
						c-55.049,22.239-113.969,45.197-173.926,28.797c-30.348-8.301-56.901-27.291-76.597-51.765
						c-18.866-23.442-29.363-51.529-45.643-76.567C77.902,161.197,40.796,143.509,0,141.02v16.087
						c37.487,4.329,71.407,22.77,97.625,64.553c32.919,52.461,53.805,107.427,120.022,124.001
						c60.753,15.207,120.029-9.926,176.1-30.643c51.956-19.196,109.225-28.23,158.283-54.463
						c51.542-27.561,93.43-70.768,147.245-94.769c57.058-25.447,124.522-13.963,175.456,20.325
						c26.591,17.901,50.389,38.864,75.776,58.294c25.27,19.34,57.86,39.922,90.869,30.769c33.325-9.241,52.924-40.438,73.719-65.452
						c22.29-26.812,51.351-48.34,84.905-58.088V139.114z"/>
				</g>
				<g>
					<path style="fill:#68C3E3;" d="M1200,114.163c-32.256,7.912-60.802,27.242-81.913,53.001
						c-20.313,24.785-37.753,57.374-68.149,71.308c-59.867,27.443-123.649-49.021-167.711-79.742
						c-48.486-33.805-111.428-45.801-168.754-31.461c-56.651,14.171-101.961,48.365-150.84,78.46
						c-46.345,28.534-95.366,53.678-144.453,77.053c-52.79,25.138-111.62,43.714-169.671,25.032
						c-31.406-10.107-58.106-31.586-78.314-57.458c-19.131-24.492-30.241-53.539-47.839-78.945
						C89.649,124.197,46.718,108.459,0,109.702v15.909c43.855,0.65,83.95,17.44,114.619,63.098
						c16.952,25.237,27.77,53.809,46.786,77.784c19.967,25.173,46.618,45.41,77.512,54.618
						c59.033,17.593,117.869-3.299,171.801-26.979c49.909-21.913,101.918-41.857,149.011-69.562
						c49.642-29.203,93.729-66.509,149.528-84.071c57.339-18.046,121.638-6.35,170.909,27.59
						c44.361,30.558,106.89,106.686,167.135,82.841c31.352-12.409,49.516-44.551,69.903-69.357
						c21.452-26.103,50.138-46.164,82.796-54.691V114.163z"/>
				</g>
			</g>
			<g>
				<g>
					<path style="fill:#61E6F5;" d="M0,521.268c3.597,5.323,7.021,10.812,10.302,16.409C7.051,531.093,3.631,524.591,0,518.257
						V521.268z"/>
					<path style="fill:#61E6F5;" d="M10.302,537.677c0.594,1.202,1.186,2.405,1.768,3.612c7.111,14.733,14.411,31.339,25.198,44.426
						c-7.157-10.597-12.941-22.388-18.612-33.058C15.973,547.608,13.19,542.604,10.302,537.677z"/>
					<path style="fill:#61E6F5;" d="M1200,359.448c-5.105,1.382-10.244,3.001-15.424,4.901
						c-43.484,15.953-78.029,48.072-110.346,80.294c-31.057,30.966-64.201,56.557-110.825,47.529
						c-38.266-7.409-69.874-39.141-98.416-63.921c-26.674-23.158-53.196-43.716-83.938-61.163
						c-62.736-35.606-141.433-5.779-169.44,60.663c-24.044,57.04-41.298,148.634-109.425,169.987
						c-34.923,10.946-69.179-6.955-99.13-23.157c-29.815-16.128-62.182-25.126-96.149-25.063
						c-66.757,0.123-124.618,38.761-188.238,54.321c-22.516,5.507-48.067,8.81-68.16-5.551c-4.977-3.557-9.335-7.837-13.24-12.574
						c6.036,8.937,13.048,17.025,21.801,22.867c20.733,13.838,46.616,9.561,69.196,3.529
						c62.455-16.684,120.794-53.322,186.94-51.211c33.584,1.072,65.251,11.025,94.566,27.234
						c29.311,16.207,63.089,33.81,97.444,23.212c66.582-20.539,84.549-109.826,108.235-165.529
						c27.086-63.7,102.489-98.555,164.365-63.225c30.805,17.589,57.293,38.33,84.154,61.443
						c28.632,24.638,60.955,55.435,99.669,61.021c46.377,6.691,79.011-20.181,109.572-50.956
						c32.198-32.423,66.854-64.531,110.653-79.913c5.421-1.904,10.798-3.503,16.137-4.85V359.448z"/>
				</g>
				<g>
					<path style="fill:#0367A6;" d="M1200,340.559c-4.233,1.346-8.489,2.862-12.773,4.582
						c-42.659,17.132-76.742,49.294-109.058,81.143c-31.864,31.404-65.939,54.47-112.635,40.877
						c-37.201-10.829-67.05-44.399-95.355-69.546c-26.142-23.226-52.586-43.364-83.025-60.562
						c-64.083-36.207-149.443-17.253-179.386,54.673c-24.742,59.432-40.627,155.237-111.724,177.834
						c-36.112,11.478-71.264-7.244-102.427-23.543c-30.812-16.116-64.55-23.337-99.246-21.224
						c-67.951,4.139-124.983,46.487-191.009,59.936c-22.517,4.587-47.594,6.18-66.666-9.07
						c-18.042-14.427-26.713-37.963-35.044-58.701c-0.543-1.353-1.097-2.702-1.655-4.049v2.816
						c2.247,4.604,4.398,9.269,6.465,13.965c8.988,20.418,18.304,43.985,36.672,57.916c19.544,14.823,44.825,12.402,67.318,7.37
						c64.806-14.498,122.228-55.019,189.588-57.192c34.334-1.108,67.381,6.992,97.694,23.084
						c30.565,16.227,65.277,34.483,100.777,23.245c69.613-22.037,86.2-115.767,110.601-174.04
						c28.948-69.13,110.904-93.803,174.38-57.911c30.625,17.316,57.132,37.686,83.571,60.882
						c28.435,24.948,59.239,57.589,97.01,66.711c46.727,11.286,80.342-13.062,111.826-44.231
						c32.356-32.032,66.714-64.165,109.827-80.686c4.79-1.835,9.546-3.434,14.271-4.815V340.559z"/>
				</g>
				<g>
					<path style="fill:#50D4F2;" d="M1200,322.815c-2.98,1.135-5.973,2.366-8.978,3.7c-41.526,18.426-74.789,50.693-106.757,82.236
						c-32.373,31.943-67.269,52.483-113.476,34.458c-35.912-14.009-63.443-49.338-91.413-74.959
						c-25.38-23.249-51.535-42.792-81.381-59.825c-64.633-36.885-156.805-30.631-188.721,46.807
						c-25.25,61.265-39.639,160.693-113.425,183.847c-37.347,11.719-73.233-8.276-105.405-24.908
						c-31.682-16.379-66.719-22.081-102.061-18.248c-68.961,7.479-125.521,52.828-193.786,64.515
						c-22.722,3.89-47.699,4.182-66.205-11.751C14.099,536.38,6.321,518.681,0,501.087v7.752
						c7.256,19.613,15.458,40.542,31.812,54.178c18.727,15.614,43.698,14.722,66.288,10.511
						c67.164-12.518,123.912-56.465,192.389-62.341c35.026-3.006,69.415,3.428,100.681,19.634
						c31.693,16.427,67.233,35.71,103.949,24.072c72.466-22.971,87.641-120.642,112.667-181.061
						c30.917-74.64,119.611-87.609,184.087-51.076c30.186,17.104,56.516,36.976,82.313,60.22
						c28.154,25.367,56.938,59.818,93.532,72.241c46.526,15.795,81.021-6.029,113.178-37.684
						c32.19-31.688,65.917-63.893,108.06-81.645c3.701-1.559,7.381-2.953,11.044-4.223V322.815z"/>
				</g>
				<g>
					<path style="fill:#346272;" d="M1200,301.61c-2.008,0.784-4.019,1.595-6.038,2.47c-40.879,17.713-73.786,49.055-104.831,80.3
						c-30.985,31.185-64.354,52.869-109.627,36.383c-35.167-12.805-62.861-46.936-90.08-71.676
						c-25.09-22.805-50.8-42.364-80.124-59.323c-63.138-36.516-155.774-36.978-192.295,37.488
						c-29.271,59.684-48.069,152.098-120.145,175.467c-36.585,11.862-72.281-5.192-105.113-19.847
						c-32.079-14.318-66.697-18.031-101.365-13.317c-68.392,9.3-125.134,53.616-194.122,61.496
						C40.709,537.396,17.012,504.924,0,457.047v27.551c6.207,17.819,13.764,35.718,27.996,48.442
						c18.207,16.279,43.027,16.91,65.914,13.53c68.915-10.178,125.449-55.635,194.417-64.219
						c35.232-4.385,70.358,0.423,102.327,16.199c32.567,16.072,68.516,35.332,105.833,23.543
						c73.671-23.273,89.309-120.91,115.956-181.995c33.775-77.424,127.32-79.211,191.492-42.346
						c29.555,16.978,55.493,36.422,80.628,59.524c27.657,25.419,54.804,60.637,90.238,74.764
						c45.773,18.249,80.295-2.253,112.264-34.046c31.575-31.402,64.552-63.39,105.647-81.81c2.438-1.093,4.866-2.101,7.288-3.06
						V301.61z"/>
				</g>
				<g>
					<path style="fill:#4E92AA;" d="M1200,278.985c-1.667,0.632-3.338,1.287-5.012,1.982
						c-40.516,16.816-73.193,47.339-103.268,78.575c-29.155,30.281-61.821,52.592-105.434,38.367
						c-32.273-10.527-59.378-40.326-84.294-62.413c-27.074-23.999-54.421-45.51-85.665-63.794
						c-59.913-35.061-146.094-35.834-187.111,28.152c-35.537,55.437-57.618,139.149-127.368,161.857
						c-33.053,10.761-66.011,0.6-97.342-11.101c-34.398-12.846-69.07-15.9-105.341-9.997
						c-65.324,10.63-121.633,49.682-188.372,54.818c-57.48,4.423-81.438-30.3-100.237-79.86C7.424,407.314,3.916,399.309,0,391.666
						v34.102c1.441,3.569,2.819,7.18,4.124,10.834c17.82,49.904,42.379,83.393,99.387,77.551
						c67.14-6.881,123.174-47.73,189.315-57.99c37.075-5.751,72.365-1.706,106.973,12.671c31.406,13.047,64.869,24.794,98.687,14
						c71.72-22.89,91.151-111.711,124.431-169.414c38.741-67.172,126.24-69.206,187.591-33.933
						c31.592,18.163,59.194,39.684,86.293,64.03c25.285,22.717,51.986,53.554,84.467,65.382
						c44.125,16.068,78.005-4.977,108.177-35.841c30.653-31.357,63.438-62.496,104.189-80.011c2.129-0.915,4.249-1.76,6.365-2.574
						V278.985z"/>
				</g>
				<g>
					<path style="fill:#68C3E3;" d="M1200,256.949c-0.615,0.229-1.228,0.447-1.844,0.685
						c-40.018,15.471-72.433,44.833-101.324,75.87c-27.174,29.193-57.452,53.9-99.906,43.455
						c-31.86-7.838-59.622-35.571-83.846-56.467c-26.972-23.267-53.76-44.836-84.343-63.19
						c-57.767-34.667-141.063-39.392-186.433,17.94c-40.107,50.681-67.223,125.387-133.419,148.163
						c-31.586,10.868-63.632,3.962-94.829-4.801c-33.998-9.55-67.518-10.524-102.266-4.136
						c-63.774,11.723-120.688,47.972-186.691,49.131c-58.538,1.027-81.227-36.787-101.775-85.967
						C17.008,362.517,9.262,348.598,0,336.478v26.923c6.395,10.227,11.9,21.379,16.585,33.147
						c19.629,49.313,42.921,85.516,100.893,82.7c66.407-3.226,123.02-40.82,187.604-51.937c35.534-6.117,69.651-4.073,103.881,7.191
						c31.293,10.297,63.814,18.87,96.159,8.079c67.983-22.681,92.626-101.799,130.452-154.964
						c43.238-60.773,128.081-57.835,186.882-22.974c30.91,18.326,57.979,39.851,85,63.488c24.556,21.48,51.996,50.256,84.053,59.471
						c43.062,12.378,74.536-11.151,102.689-40.89c29.482-31.143,62.02-61.1,102.286-77.265c1.175-0.471,2.346-0.917,3.517-1.357
						V256.949z"/>
				</g>
			</g>
			<g>
				<g>
					<path style="fill:#61E6F5;" d="M1200,475.045c-2.26,0.403-4.526,0.839-6.803,1.345c-42.951,9.538-73.798,41.521-99.954,75.108
						c-23.215,29.811-47.32,70.461-84.133,84.872c-72.381,28.334-125.112-69.85-179.639-99.694
						c-53.992-29.551-105.377,62.787-127.266,101.387c-26.09,46.007-58.191,109.632-114.717,122.287
						c-63.863,14.299-120.27-47.697-175.68-69.271c-66.433-25.865-124.778-4.618-186.224,23.617
						c-24.026,11.04-52.671,24.026-79.412,14.956c-23.191-7.865-42.758-31.016-60.78-46.84c-25.893-22.734-54.071-44.55-85.39-57.74
						V640.7c31.808,13.057,60.548,34.87,86.958,57.395c18.332,15.635,38.35,38.975,61.721,46.609
						c26.863,8.774,55.397-4.748,79.288-16.057c62.306-29.492,120.898-49.618,188.059-22.03
						c55.895,22.96,112.147,83.791,177.22,69.146c56.696-12.759,90.807-74.255,118.257-120.253
						c22.442-37.606,73.256-135.128,127.097-106.363c54.329,29.025,105.85,130.545,178.304,97.944
						c35.69-16.059,58.42-57.934,81.078-87.902c25.378-33.564,55.656-65.395,98.344-74.241c1.228-0.254,2.452-0.483,3.675-0.707
						V475.045z"/>
				</g>
				<g>
					<path style="fill:#0367A6;" d="M1200,456.526c-4.517,0.801-9.063,1.796-13.639,3.004
						c-43.438,11.467-75.262,44.412-102.833,78.261c-24.258,29.78-51.687,68.068-91.254,77.573
						c-73.052,17.55-125.844-76.697-183.164-106.373c-51.977-26.91-104.685,55.411-124.678,93.379
						c-24.566,46.654-52.414,114.911-109.929,127.475c-29.377,6.418-58.435-5.939-83.209-20.964
						c-29.913-18.141-58.716-37.348-92.209-48.372c-63.454-20.884-120.803,0.165-179.17,26.059
						c-24.201,10.736-52.947,23.382-79.706,14.755c-23.197-7.478-41.799-30.43-59.072-46.701
						C56.569,631.481,29.958,609.362,0,595.483v14.722c31.174,13.658,58.976,36.047,84.659,59.314
						c17.733,16.065,36.886,39.158,60.365,46.358c27.016,8.285,55.776-4.93,79.982-15.963
						c59.045-26.914,116.376-46.994,180.391-24.273c56.105,19.913,112.375,83.534,175.893,69.589
						c57.251-12.569,86.938-78.666,112.419-125.12c20.14-36.717,71.84-123.773,123.36-97.977
						c57.335,28.708,108.627,126.12,182.069,104.584c38.532-11.299,64.714-51.023,88.315-80.83
						c26.808-33.857,58.105-66.707,101.31-77.516c3.768-0.943,7.512-1.725,11.238-2.387V456.526z"/>
				</g>
				<g>
					<path style="fill:#50D4F2;" d="M1200,437.634c-5.718,1.043-11.479,2.381-17.29,4.065
						c-43.8,12.694-76.554,45.754-105.532,79.504c-25.636,29.858-55.249,65.201-96.755,70.948
						c-37.349,5.172-70.038-19.091-96.945-42.034c-28.415-24.228-54.879-50.198-88.031-68.138
						c-53.339-28.864-108.97,44.225-129.33,85.509c-23.489,47.63-48.323,120.321-107.11,133.307
						c-29.732,6.567-58.939-7.057-83.739-22.388c-29.607-18.303-58.934-36.14-92.838-45.248
						c-62.736-16.853-120.463,6.229-177.943,30.245c-23.954,10.008-52.384,21.328-78.295,11.871
						c-22.457-8.196-39.676-31.044-55.741-47.833C49.218,605.254,26.149,584.169,0,569.73v12.407
						c28.34,14.144,53.422,35.851,76.55,58.66c16.734,16.503,34.712,39.367,57.576,47.163c26.406,9.003,55.049-3.034,79.17-13.441
						c57.842-24.957,115.331-46.966,178.359-27.99c33.649,10.131,62.642,28.699,92.332,46.953
						c24.708,15.191,53.781,28.235,83.285,21.782c58.008-12.688,84.263-83.088,108.172-130.111
						c20.062-39.457,74.04-117.198,126.601-89.276c33.152,17.612,59.057,44.359,87.204,68.544
						c26.803,23.03,59.659,46.727,96.915,39.657c40.543-7.693,69.089-44.548,94.013-74.347
						c28.281-33.814,60.583-66.827,104.216-78.908c5.242-1.451,10.443-2.615,15.608-3.539V437.634z"/>
				</g>
				<g>
					<path style="fill:#346272;" d="M1200,418.401c-5.905,1.144-11.858,2.601-17.863,4.415
						c-43.97,13.284-77.535,45.778-107.732,79.073c-27.177,29.966-57.45,62.654-100.514,65.866
						c-39.651,2.958-73.951-24.452-102.381-48.925c-26.665-22.954-52.299-44.957-82.844-62.702
						c-57.382-33.336-118.258,28.987-140.709,78.43c-22.331,49.18-45.932,126.341-105.98,140.603
						c-32.551,7.731-64.006-9.684-90.759-26.148c-27.418-16.874-56.368-30.988-88.047-37.536
						c-64.244-13.28-123.348,14.671-182.312,36.545c-23.488,8.713-51.16,17.466-75.261,5.863
						c-21.073-10.145-36.252-33.019-50.817-50.544C38.349,583.57,20.376,564.777,0,550.339v9.158
						c23.574,14.69,44.315,34.985,63.365,56.295c15.318,17.135,31.694,40.063,53.71,48.751c25.302,9.984,53.427-0.509,77.165-10.052
						c57.353-23.057,115.309-47.378,177.926-32.758c34.228,7.991,63.999,25.022,93.671,43.288
						c25.044,15.417,54.495,29.447,84.52,22.669c59.803-13.499,83.451-88.544,106.764-137.018
						c20.829-43.308,78.364-112.109,132.647-82.468c33.199,18.128,60.158,43.484,88.783,67.755
						c26.992,22.887,59.509,47.73,96.875,44.387c42.379-3.792,72.95-37.648,99.293-67.595
						c29.611-33.663,62.761-66.749,106.685-80.019c6.252-1.889,12.449-3.392,18.595-4.545V418.401z"/>
				</g>
				<g>
					<path style="fill:#4E92AA;" d="M43.333,587.752c8.57,12.565,17.55,26.514,28.77,37.201
						c-9.05-10.184-16.918-21.823-24.632-31.883C46.105,591.288,44.725,589.516,43.333,587.752z"/>
					<path style="fill:#4E92AA;" d="M0,535.496v7.006c15.976,12.926,30.239,28.654,43.333,45.25
						c-1.186-1.74-2.365-3.453-3.541-5.128C27.872,565.649,14.8,549.313,0,535.496z"/>
					<path style="fill:#4E92AA;" d="M1200,398.868c-6.287,1.334-12.627,3.031-19.025,5.125
						c-43.978,14.396-78.069,46.907-109.25,79.918c-28.568,30.245-60.348,60.153-104.944,59.074
						c-39.417-0.953-73.092-29.786-101.676-54.244c-26.862-22.985-53.113-44.357-83.855-62.005
						c-59.385-34.091-125.359,19.419-148.934,73.872c-22.257,51.41-44.122,134.068-106.733,149.736
						c-33.413,8.361-65.356-9.479-93.129-25.862c-27.957-16.491-58.081-28.744-90.395-32.922
						c-64.502-8.339-123.508,22.94-183.211,42.524c-23.137,7.59-50.023,14.31-72.66,1.51c-5.099-2.883-9.759-6.521-14.086-10.643
						c7.114,8.005,14.958,15.111,24.035,19.842c23.395,12.193,50.695,4.429,74.009-3.736
						c59.224-20.74,118.341-50.287,182.654-39.445c31.982,5.391,61.486,18.609,89.132,35.295
						c27.255,16.451,58.86,34.026,91.846,26.041c61.241-14.825,83.992-94.873,106.201-145.034
						c22.958-51.851,86.26-109.844,144.604-76.123c30.647,17.713,56.61,39.381,83.395,62.346
						c28.517,24.451,62.531,52.541,102.108,51.523c43.869-1.128,74.909-32.451,102.776-62.546
						c30.71-33.165,64.564-65.675,108.564-79.511c6.245-1.964,12.434-3.548,18.572-4.789V398.868z"/>
				</g>
				<g>
					<path style="fill:#68C3E3;" d="M0,529.731c7.933,8.553,15.277,17.864,22.154,27.569C15.37,546.016,8.045,535.071,0,524.947
						V529.731z"/>
					<path style="fill:#68C3E3;" d="M22.154,557.3c0.921,1.532,1.834,3.069,2.735,4.612c9.449,16.17,19.017,35.183,33.16,48.387
						c-9.916-11.631-17.839-25.621-25.651-37.785C29.096,567.372,25.686,562.285,22.154,557.3z"/>
					<path style="fill:#68C3E3;" d="M1200,379.175c-6.321,1.496-12.696,3.362-19.128,5.636
						c-43.759,15.471-78.11,47.951-110.013,80.607c-29.877,30.582-62.988,57.683-108.651,52.133
						c-38.864-4.724-71.682-35.133-100.315-59.699c-26.865-23.048-53.516-43.95-84.377-61.407
						c-61.474-34.774-133.12,9.705-158.127,69.55c-22.576,54.028-42.914,141.741-108.432,159.101
						c-34.366,9.106-67.069-9.221-96.004-25.452c-28.753-16.129-60.193-26.408-93.188-28.2
						c-65.205-3.54-123.595,31.367-184.831,48.684c-22.852,6.463-48.906,11.116-70.063-2.829c-3.138-2.068-6.065-4.425-8.821-6.999
						c5.468,6.414,11.539,12.113,18.538,16.387c21.895,13.373,48.364,7.672,71.342,0.64c60.36-18.473,119.124-51.503,183.919-45.553
						c32.646,2.998,63.404,14.29,91.726,30.595c28.326,16.308,60.631,34.388,94.495,25.657
						c64.013-16.504,85.095-101.669,107.477-154.35c24.246-57.068,92.949-106.184,153.363-71.752
						c30.816,17.563,57.291,38.687,84.182,61.7c28.623,24.495,61.914,54.086,101.099,56.915
						c45.185,3.262,77.641-25.268,106.87-55.673c31.573-32.844,65.829-65.344,109.731-80.272c6.46-2.197,12.861-3.984,19.209-5.402
						V379.175z"/>
				</g>
			</g>
			<g>
				<g>
					<path style="fill:#61E6F5;" d="M288.979,850c36.087-14.256,73.458-21.116,115.014-10.806
						c11.519,2.858,22.784,6.607,33.913,10.806h23.422c-18.042-7.917-36.233-15.425-55.106-20.527
						c-52.419-14.172-98.358-1.035-143.547,20.527H288.979z"/>
					<path style="fill:#61E6F5;" d="M707.051,850c15.249-10.46,29.808-21.927,43.713-33.464
						c22.665-18.805,44.411-38.695,66.829-57.791c24.835-21.156,48.795-43.353,83.155-32.682
						c56.279,17.478,100.362,87.113,165.802,58.125c28.269-12.522,50.98-38.301,74.699-57.681
						c18.082-14.775,37.403-28.157,58.751-36.82v-20.111c-22.686,9.295-42.75,24.361-61.297,40.915
						c-23.175,20.685-45.262,48.301-73.724,61.6c-66.439,31.045-110.233-44.558-166.667-62.439
						c-34.484-10.926-57.971,12.769-82.096,34.545c-21.947,19.81-43.16,40.434-65.323,60.003
						c-18.195,16.065-37.621,32.142-58.421,45.8H707.051z"/>
					<path style="fill:#61E6F5;" d="M54.117,850h16.154C48.107,830.241,25.587,804.129,0,784.607v12.354
						C19.442,812.901,36.993,832.711,54.117,850z"/>
				</g>
				<g>
					<path style="fill:#0367A6;" d="M678.312,850c26.341-16.147,50.325-37.022,72.329-57.656
						c21.649-20.302,42.318-41.629,63.779-62.128c23.409-22.36,46.364-47.513,80.978-36.331
						c56.585,18.28,100.229,99.638,167.638,66.586c28.698-14.072,50.192-43.483,72.864-65.417
						c19.029-18.409,39.893-35.267,64.099-45.101v-20.367c-26.025,10.282-47.787,29.164-67.339,49.621
						c-22.181,23.208-43.076,54.492-72.067,69.38c-68.418,35.137-112.035-52.125-168.784-70.829
						c-34.759-11.456-57.092,15.209-79.735,38.153c-20.93,21.209-41.012,43.253-62.104,64.303
						c-25.667,25.617-54.306,51.964-86.779,69.786H678.312z"/>
					<path style="fill:#0367A6;" d="M87.59,850h19.505c-11.576-8.279-22.327-17.961-32.102-26.367
						C51.641,803.55,27.354,778.351,0,760.396v12.272c26.55,18.838,50.006,44.644,72.822,64.583
						C77.513,841.351,82.444,845.694,87.59,850z"/>
					<path style="fill:#0367A6;" d="M240.105,850c53.499-28.039,106.504-47.969,168.26-29.927
						c25.018,7.309,48.85,18.912,72.774,29.927h19.286c-29.85-13.417-58.996-29.863-89.911-39.6
						c-68.045-21.431-125.54,3.449-185.197,35.724c-2.372,1.283-4.787,2.582-7.236,3.876H240.105z"/>
				</g>
				<g>
					<path style="fill:#50D4F2;" d="M647.209,850c38.948-17.943,72.08-50.092,100.939-80.641
						c20.415-21.611,39.826-44.153,60.053-65.94c20.565-22.15,43.552-52.844,77.154-42.355
						c57.851,18.058,99.418,110.518,169.361,77.967c31.752-14.777,53.11-51.344,75.91-76.698
						c19.737-21.948,42.065-42.162,69.374-52.495v-20.445c-29.637,10.465-53.018,32.992-73.328,57.204
						c-22.336,26.627-43.07,65.325-75.301,80.903c-71.084,34.355-112.595-63.757-170.782-82.254
						c-33.741-10.725-55.971,21.605-75.718,44.207c-19.647,22.487-38.43,45.726-58.247,68.064
						c-32.728,36.894-71.542,76.836-119.543,92.483H647.209z"/>
					<path style="fill:#50D4F2;" d="M130.516,850h62.868c12.276-4.68,24.077-11.041,35.006-16.944
						c60.244-32.541,117.612-54.418,185.56-31.395C450.449,814.027,484.259,835.683,519.9,850h22.139
						c-43.533-13.183-83.058-42.26-126.198-57.889c-67.945-24.616-125.64-4.022-186.452,28.613
						c-24.024,12.893-52.407,28.257-80.609,22.093c-24.98-5.46-47.564-27.708-66.731-43.616C56.72,778.178,29.933,753.198,0,736.508
						v12.082c29.146,17.667,55.087,43.394,79.885,64.235C94.752,825.319,111.834,841.131,130.516,850z"/>
				</g>
				<g>
					<path style="fill:#346272;" d="M1200,549.342c-34.289,9.865-59.516,36.439-80.759,64.755
						c-21.725,28.958-40.868,71.265-73.168,89.715c-71.343,40.751-116.848-64.066-172.184-87.401
						c-37.022-15.612-58.497,21.824-78.148,47.328c-18.3,23.75-35.671,48.215-54.18,71.804
						c-34.873,44.446-78.142,94.998-136.609,105.36c-69.484,12.315-124.681-41.656-184.548-66.885
						c-69.655-29.354-128.605-9.134-192.219,24.029c-23.567,12.286-51.727,26.879-79,18.772
						c-24.015-7.139-45.818-30.364-64.923-45.836C58.446,750.078,30.639,727.504,0,713.129v11.796
						c30.654,15.721,58.239,39.907,84.078,61.097c19.147,15.701,41.412,38.493,66.121,44.301
						c27.937,6.568,56.222-8.807,80.065-21.523c61.349-32.717,119.331-52.049,187.215-25.884
						c61.405,23.667,116.465,76.471,186.487,65.361c59.271-9.405,104.008-58.066,140.732-102.087
						c19.217-23.035,37.374-46.938,56.436-70.102c18.935-23.01,40.373-56.951,74.261-45.979
						c58.525,18.949,100.103,122.468,172.303,86.36c32.738-16.373,52.886-57.156,74.809-85.007
						c20.866-26.508,45.316-51.45,77.494-61.833V549.342z"/>
				</g>
				<g>
					<path style="fill:#4E92AA;" d="M1200,512.381c-40.423,8.607-68.05,40.227-90.597,73.134
						c-21.258,31.026-39.849,76.756-73.311,96.426c-73.211,43.036-120.091-70.034-175.754-94.718
						c-37.149-16.474-57.169,23.355-75.33,49.344c-17.291,24.744-33.479,50.25-50.676,75.059
						c-31.752,45.805-71.996,100.611-129.827,112.634c-69.117,14.37-124.558-43.601-182.757-70.37
						c-35.41-16.287-73.766-24.285-112.071-14.24c-28.86,7.568-54.32,20.042-80.663,33.541
						c-23.287,11.933-51.304,26.4-78.044,17.493c-23.532-7.839-44.527-31.771-63.669-46.982
						C60.669,722.541,31.661,701.563,0,688.924v12.86c31.235,13.402,59.746,35.083,86.036,56.092
						c19.146,15.3,40.553,38.967,64.307,46.478c26.972,8.529,55.022-6.059,78.396-18.175c26.347-13.657,51.791-26.354,80.67-34.147
						c38.19-10.305,76.531-2.888,112.118,12.968c59.062,26.315,114.335,82.331,183.827,68.79
						c58.176-11.336,100.013-63.982,133.349-109.222c17.882-24.268,34.601-49.376,52.278-73.791
						c18.744-25.888,39.291-65.116,76.543-49.043c55.506,23.95,101.651,133.956,174.036,91.301
						c32.829-19.346,51.421-63.726,72.833-93.919c21.819-30.767,48.218-60.001,85.607-69.301V512.381z"/>
				</g>
				<g>
					<path style="fill:#68C3E3;" d="M1200,493.563c-1.06,0.205-2.12,0.407-3.183,0.636c-42.157,9.072-71.441,41.515-95.835,75.097
						c-21.93,30.19-43.652,73.561-78.835,90.075c-73.211,34.364-121.656-71.659-177.451-98.287
						c-34.869-16.641-56.685,16.799-75.914,41.411c-18.202,23.297-34.233,48.079-49.96,73.102
						c-28.781,45.797-65.378,104.849-122.536,116.418c-66.471,13.454-122.369-46.715-179.281-70.663
						c-67.895-28.57-126.406-8.087-189.195,22.291c-23.759,11.495-52.18,25.007-78.917,15.651
						c-23.311-8.157-43.638-31.617-62.362-47.122C60.188,690.359,31.507,669.218,0,656.525v16.325
						c31.654,12.645,60.567,33.714,87.123,55.215c18.955,15.347,39.639,39.034,63.075,47.019
						c26.759,9.117,54.994-4.894,78.529-16.622c63.592-31.69,122.452-50.988,190.998-20.742
						c57.528,25.384,113.218,84.468,181.017,70.578c57.461-11.772,95.934-68.645,126.21-114.433
						c16.466-24.902,32.582-50.04,50.31-74.066c18.678-25.315,39.592-61.976,75.602-45.405
						c55.712,25.637,103.291,135.187,176.515,96.436c34.275-18.139,54.436-62.753,75.984-93.327
						c23.672-33.587,52.435-65.95,94.397-74.389c0.08-0.016,0.16-0.029,0.24-0.045V493.563z"/>
				</g>
			</g>
			<g>
				<g>
					<path style="fill:#50D4F2;" d="M1168.954,850c10.251-2.96,20.574-5.685,31.046-7.955v-18.559
						c-26.352,6.767-51.443,16.888-76.83,26.515H1168.954z"/>
					<path style="fill:#50D4F2;" d="M934.647,850c-11.523-3.931-23.184-7.721-35.147-10.769
						c-23.875-6.083-44.653,0.574-64.826,10.769H934.647z"/>
				</g>
				<g>
					<path style="fill:#346272;" d="M810.642,850c0.742-0.453,1.483-0.91,2.226-1.362c27.235-16.597,54.415-33.965,87.482-25.537
						c26.292,6.701,50.86,18.205,75.75,26.9h112.823c37.751-13.71,72.653-33.369,111.077-44.662v-18.906
						c-46.118,15.199-85.691,44.392-132.852,58.606c-61.932,18.666-109.488-24.087-166.335-38.603
						c-33.121-8.457-60.315,10.409-86.983,27.634c-8.172,5.278-16.31,10.611-24.457,15.931H810.642z"/>
				</g>
				<g>
					<path style="fill:#4E92AA;" d="M770.768,850c14.172-9.654,28.213-19.509,42.362-29.194
						c28.254-19.338,56.253-40.252,92.045-29.306c53.962,16.502,99.294,59.64,159.158,42.505
						c30.512-8.734,57.536-29.702,85.373-44.575c16.204-8.657,32.927-16.404,50.293-22.103v-19.312
						c-17.989,6.389-35.12,15.262-51.593,25.163c-27.175,16.333-53.515,39.321-84.072,48.653
						c-60.957,18.616-105.274-30.093-159.539-46.992c-35.85-11.165-63.751,11.403-91.326,31.4
						c-20.103,14.578-39.936,29.546-60.294,43.763H770.768z"/>
					<path style="fill:#4E92AA;" d="M15.505,850C10.469,844.251,5.322,838.621,0,833.307v11.996c1.457,1.543,2.899,3.111,4.33,4.697
						H15.505z"/>
				</g>
				<g>
					<path style="fill:#68C3E3;" d="M406.742,850c-0.772-0.192-1.545-0.383-2.319-0.567c-28.454-6.77-54.748-5.503-79.944,0.567
						H406.742z"/>
					<path style="fill:#68C3E3;" d="M737.306,850c2.002-1.411,3.997-2.826,5.977-4.25c23.897-17.183,46.815-35.686,70.17-53.596
						c26.887-20.617,54.606-44.803,90.513-33.415c54.563,17.305,97.964,71.41,160.006,51.331
						c30.667-9.925,56.342-34.886,82.882-52.611c16.794-11.215,34.403-21.305,53.146-28.369v-19.737
						c-19.679,7.754-37.866,19.199-55.04,31.887c-25.895,19.132-50.88,46.146-81.727,56.697
						c-63.187,21.612-105.713-38.069-160.588-55.809c-35.972-11.629-63.419,14.249-89.563,35.489
						c-22.941,18.638-45.389,37.905-68.855,55.88c-7.305,5.596-14.788,11.135-22.442,16.501H737.306z"/>
					<path style="fill:#68C3E3;" d="M27.002,850h12.889C27.171,836.166,14.119,821.653,0,809.227v12.285
						C9.419,830.366,18.33,840.17,27.002,850z"/>
				</g>
			</g>
		</g>
	</g>
</g>
</svg>
