<svg viewBox="0 0 72 72" xmlns="http://www.w3.org/2000/svg"><g style="fill:none;stroke:#000;stroke-linecap:round;stroke-linejoin:round;stroke-miterlimit:10;stroke-width:2"><path d="m11 16.9092 4.9985-5h43.003c.5514 0 .9985.447.9985.9985v43.003c0 .5514-.447.9985-.9985.9985"/><path d="m55.0015 60.9092h-43.003c-.5514 0-.9985-.447-.9985-.9985v-43.003c0-.5514.447-.9985.9985-.9985h43.003c.5514 0 .9985.447.9985.9985v43.003c0 .5514-.447.9985-.9985.9985z"/><path d="m47.3583 29.7985h-4v7h4"/><path d="m43.3583 33.2985h3"/><path d="m19.6417 36.7985v-7l5 7v-7"/><path d="m30.8583 36.7985c-1.3807 0-2.5-1.1193-2.5-2.5v-2c0-1.3807 1.1193-2.5 2.5-2.5 1.3807 0 2.5 1.1193 2.5 2.5v2c0 1.3807-1.1193 2.5-2.5 2.5z"/><path d="m36.3583 29.8286h4"/><path d="m38.3583 29.8286v7"/></g></svg>